<?xml version="1.0" encoding="UTF-8"?>
<svg xmlns="http://www.w3.org/2000/svg" xmlns:xlink="http://www.w3.org/1999/xlink" width="192.76pt" height="192.76pt" viewBox="0 0 192.76 192.76" version="1.1">
<g id="surface1">
<path style=" stroke:none;fill-rule:evenodd;fill:rgb(100%,100%,100%);fill-opacity:1;" d="M 0 0.00390625 L 192.757813 0.00390625 L 192.757813 192.761719 L 0 192.761719 L 0 0.00390625 "/>
<path style=" stroke:none;fill-rule:evenodd;fill:rgb(92.89856%,10.998535%,14.099121%);fill-opacity:1;" d="M 17.582031 104.605469 C 20.578125 109.515625 26.074219 112.808594 32.1875 112.808594 C 41.21875 112.808594 46.195313 105.015625 46.195313 105.015625 L 46.832031 107.089844 C 42.652344 112.53125 35.179688 115.808594 26.820313 115.808594 C 17.195313 115.808594 8.894531 111.214844 5.074219 104.59375 C 3.636719 102.101563 2.835938 99.316406 2.835938 96.382813 C 2.835938 85.652344 13.574219 76.957031 26.820313 76.957031 C 36.179688 76.957031 43.714844 80.964844 47.671875 86.777344 L 31.964844 96.179688 L 40.929688 82.417969 C 38.363281 80.804688 35.21875 79.296875 31.964844 79.296875 C 22.773438 79.296875 15.199219 86.96875 15.199219 96.164063 C 15.199219 99.242188 16.074219 102.136719 17.582031 104.605469 "/>
<path style=" stroke:none;fill-rule:evenodd;fill:rgb(92.89856%,10.998535%,14.099121%);fill-opacity:1;" d="M 59.636719 104.597656 C 59.589844 104.90625 59.566406 105.222656 59.566406 105.546875 C 59.566406 109.035156 62.394531 111.867188 65.886719 111.867188 C 69.375 111.867188 72.207031 109.035156 72.207031 105.546875 C 72.207031 105.222656 72.179688 104.90625 72.136719 104.59375 C 71.679688 101.558594 69.054688 99.226563 65.886719 99.226563 C 62.714844 99.226563 60.09375 101.558594 59.636719 104.597656 Z M 83.089844 104.59375 L 86.230469 115.175781 L 75.210938 115.175781 L 73.042969 107.929688 C 71.59375 112.105469 66.695313 115.175781 60.878906 115.175781 C 53.921875 115.175781 48.28125 110.78125 48.28125 105.359375 C 48.28125 105.105469 48.292969 104.851563 48.316406 104.59375 C 48.8125 99.535156 54.246094 95.539063 60.878906 95.539063 C 64.644531 95.539063 68.023438 96.828125 70.332031 98.867188 L 67.332031 88.832031 L 54.683594 88.832031 C 54.683594 88.832031 56.789063 87.570313 66.121094 84.175781 C 75.449219 80.78125 78.40625 88.832031 78.40625 88.832031 L 83.089844 104.59375 "/>
<path style=" stroke:none;fill-rule:evenodd;fill:rgb(92.89856%,10.998535%,14.099121%);fill-opacity:1;" d="M 118.316406 104.59375 L 118.316406 115.175781 L 106.980469 115.175781 L 106.980469 91.929688 C 106.980469 90.21875 105.59375 88.832031 103.882813 88.832031 C 102.566406 88.832031 101.445313 89.648438 100.996094 90.804688 L 100.996094 115.175781 L 89.867188 115.175781 L 89.867188 88.832031 L 83.378906 88.832031 C 83.378906 88.832031 92.40625 83.363281 95.535156 83.363281 C 98.503906 83.363281 100.699219 85.640625 100.972656 88.546875 C 105.339844 86.191406 109.671875 83.363281 112.648438 83.363281 C 115.726563 83.363281 118.230469 85.8125 118.316406 88.871094 L 118.316406 104.59375 "/>
<path style=" stroke:none;fill-rule:evenodd;fill:rgb(92.89856%,10.998535%,14.099121%);fill-opacity:1;" d="M 135.785156 104.59375 L 137.359375 109.808594 C 137.390625 112.046875 139.230469 113.832031 141.484375 113.832031 C 143.789063 113.832031 145.65625 111.964844 145.65625 109.660156 C 145.65625 109.5 145.644531 109.335938 145.628906 109.179688 L 144.285156 104.59375 L 139.578125 88.496094 C 139.34375 86.410156 137.574219 84.789063 135.429688 84.789063 C 133.304688 84.789063 131.273438 86.773438 131.015625 88.832031 Z M 153.828125 104.597656 C 151.679688 111.109375 145.546875 115.808594 138.316406 115.808594 C 131.085938 115.808594 124.953125 111.109375 122.804688 104.59375 C 122.273438 102.988281 121.988281 101.265625 121.988281 99.480469 C 121.988281 90.460938 129.296875 83.152344 138.316406 83.152344 C 147.335938 83.152344 154.644531 90.460938 154.644531 99.480469 C 154.644531 101.265625 154.359375 102.988281 153.828125 104.597656 "/>
<path style=" stroke:none;fill-rule:evenodd;fill:rgb(92.89856%,10.998535%,14.099121%);fill-opacity:1;" d="M 172.597656 104.59375 L 172.597656 115.175781 L 161.472656 115.175781 L 161.472656 88.832031 L 155.246094 88.832031 C 155.246094 88.832031 164.007813 83.363281 167.140625 83.363281 C 170.109375 83.363281 172.304688 85.640625 172.578125 88.546875 C 176.945313 86.191406 181.273438 83.363281 184.253906 83.363281 C 187.332031 83.363281 189.835938 85.8125 189.921875 88.871094 L 189.921875 115.175781 L 178.582031 115.175781 L 178.582031 91.929688 C 178.582031 90.21875 177.195313 88.832031 175.484375 88.832031 C 174.171875 88.832031 173.050781 89.648438 172.597656 90.804688 L 172.597656 104.59375 "/>
</g>
</svg>
